<?xml version="1.0" encoding="utf-8"?>
<!-- Generator: Adobe Illustrator 16.0.0, SVG Export Plug-In . SVG Version: 6.00 Build 0)  -->
<!DOCTYPE svg PUBLIC "-//W3C//DTD SVG 1.1//EN" "http://www.w3.org/Graphics/SVG/1.1/DTD/svg11.dtd">
<svg version="1.1" xmlns="http://www.w3.org/2000/svg" xmlns:xlink="http://www.w3.org/1999/xlink" x="0px" y="0px"
	 width="1133.86px" height="1133.86px" viewBox="0 0 1133.86 1133.86" enable-background="new 0 0 1133.86 1133.86"
	 xml:space="preserve">
<g id="facebook_x5F_logo_x5F_color" display="none">
	<circle display="inline" fill="#3D5193" cx="566.929" cy="566.93" r="566.929"/>
	<path display="inline" fill="#FFFFFF" d="M951.371,718.797l20.873-161.838H811.98V453.63c0-46.856,13.065-78.789,80.248-78.789
		l85.632-0.049v-144.74c-14.786-1.975-65.615-6.381-124.855-6.381c-123.571,0-208.114,75.436-208.114,213.947v119.34H505.127
		v161.838h139.764v415.25h167.09v-415.25H951.371z"/>
</g>
<g id="facebook_x5F_logo_x5F_white" display="none">
	<path display="inline" fill="#FFFFFF" d="M566.929,0.001C253.823,0.001,0,253.824,0,566.93
		c0,313.106,253.823,566.929,566.929,566.929c26.45,0,52.475-1.818,77.961-5.323V718.797H505.127V556.959h139.764v-119.34
		c0-138.511,84.543-213.947,208.114-213.947c59.24,0,110.069,4.406,124.855,6.381v144.74l-85.632,0.049
		c-67.183,0-80.248,31.932-80.248,78.789v103.329h160.264l-20.873,161.838H811.98v359.506
		c190.413-91.412,321.878-286.038,321.878-511.373C1133.858,253.824,880.035,0.001,566.929,0.001z"/>
</g>
<g id="Twitter_x5F_logo_x5F_color" display="none">
	<circle display="inline" fill="#38A8E0" cx="566.926" cy="566.927" r="566.904"/>
	<path display="inline" fill="#FFFFFF" d="M944.864,332.501c-27.812,12.342-57.713,20.68-89.068,24.419
		c32.016-19.196,56.643-49.566,68.191-85.792c-29.93,17.771-63.107,30.694-98.443,37.651
		c-28.312-30.165-68.631-48.986-113.225-48.986c-85.645,0-155.082,69.446-155.082,155.077c0,12.18,1.381,23.986,3.996,35.329
		c-128.857-6.443-243.109-68.175-319.631-162.041c-13.341,22.943-20.981,49.566-20.981,77.99c0,53.784,27.358,101.286,68.969,129.07
		c-25.419-0.786-49.31-7.802-70.232-19.402v1.955c0,75.125,53.468,137.812,124.391,152.064c-13.003,3.526-26.741,5.466-40.876,5.466
		c-9.962,0-19.718-0.999-29.15-2.821c19.718,61.623,76.991,106.436,144.843,107.729c-53.041,41.581-119.909,66.383-192.624,66.383
		c-12.489,0-24.831-0.764-36.953-2.174c68.631,43.961,150.147,69.645,237.746,69.645c285.234,0,441.215-236.263,441.215-441.214
		c0-6.7-0.178-13.393-0.426-20.093C897.759,390.927,924.03,363.613,944.864,332.501z"/>
</g>
<g id="Twitter_x5F_logo_x5F_white">
	<path fill="#FFFFFF" d="M566.926,0.022C253.833,0.022,0.021,253.834,0.021,566.927s253.812,566.904,566.904,566.904
		S1133.83,880.02,1133.83,566.927S880.019,0.022,566.926,0.022z M867.522,412.753c0.248,6.7,0.426,13.393,0.426,20.093
		c0,204.952-155.98,441.214-441.215,441.214c-87.599,0-169.115-25.684-237.746-69.645c12.122,1.41,24.464,2.174,36.953,2.174
		c72.715,0,139.583-24.802,192.624-66.383c-67.852-1.293-125.125-46.105-144.843-107.729c9.433,1.822,19.188,2.821,29.15,2.821
		c14.135,0,27.873-1.939,40.876-5.466c-70.923-14.252-124.391-76.939-124.391-152.064v-1.955
		c20.923,11.6,44.813,18.616,70.232,19.402c-41.61-27.784-68.969-75.287-68.969-129.07c0-28.423,7.641-55.047,20.981-77.99
		c76.521,93.866,190.773,155.598,319.631,162.041c-2.615-11.343-3.996-23.149-3.996-35.329c0-85.63,69.438-155.077,155.082-155.077
		c44.594,0,84.912,18.822,113.225,48.986c35.336-6.957,68.514-19.88,98.443-37.651c-11.549,36.226-36.176,66.596-68.191,85.792
		c31.355-3.739,61.256-12.078,89.068-24.419C924.03,363.613,897.759,390.927,867.522,412.753z"/>
</g>
<g id="Linkedin_x5F_logo_x5F_couleur" display="none">
	<circle display="inline" fill="#0077B5" cx="566.93" cy="566.93" r="566.93"/>
	<path display="inline" fill="#FFFFFF" d="M228.824,449.785h145.045v465.961H228.824V449.785z M301.386,218.143
		c46.373,0,83.966,37.653,83.966,83.953c0,46.345-37.594,83.992-83.966,83.992c-46.532,0-84.072-37.647-84.072-83.992
		C217.313,255.796,254.854,218.143,301.386,218.143"/>
	<path display="inline" fill="#FFFFFF" d="M464.789,449.785h138.904v63.684h1.971c19.317-36.661,66.622-75.267,137.119-75.267
		c146.617,0,173.753,96.461,173.753,221.957v255.587H771.758V689.2c0-54.086-1.066-123.604-75.32-123.604
		c-75.427,0-86.91,58.862-86.91,119.607v230.543H464.789V449.785z"/>
</g>
<g id="Lindedin_x5F_logo_x5F_white" display="none">
	<path display="inline" fill="#FFFFFF" d="M566.93,0C253.823,0,0,253.823,0,566.93s253.823,566.93,566.93,566.93
		s566.93-253.823,566.93-566.93S880.037,0,566.93,0z M373.869,915.746H228.824V449.785h145.045V915.746z M301.386,386.088
		c-46.532,0-84.072-37.647-84.072-83.992c0-46.299,37.541-83.953,84.072-83.953c46.373,0,83.966,37.653,83.966,83.953
		C385.352,348.441,347.758,386.088,301.386,386.088z M916.535,915.746H771.758V689.2c0-54.086-1.066-123.604-75.32-123.604
		c-75.427,0-86.91,58.862-86.91,119.607v230.543H464.789V449.785h138.904v63.684h1.971c19.317-36.661,66.622-75.267,137.119-75.267
		c146.617,0,173.753,96.461,173.753,221.957V915.746z"/>
</g>
<g id="Rss_x5F_logo_x5F_couleur" display="none">
	<rect x="-0.001" fill="#EB7B1D" width="1133.853" height="1133.86"/>
	<circle display="inline" fill="#EB7B1D" cx="566.925" cy="566.93" r="566.926"/>
	<path display="inline" fill="#FFFFFF" d="M302.415,735.906c53.092,0,96.117,43.078,96.117,96.143
		c0,53.125-43.024,96.123-96.117,96.123c-53.091,0-96.116-42.998-96.116-96.123C206.298,778.984,249.323,735.906,302.415,735.906z"
		/>
	<path display="inline" fill="#FFFFFF" d="M206.391,589.695c90.095,0,174.739,35.246,238.428,99.161
		c63.728,64.046,98.782,149.294,98.782,240.059h138.782c0-263.574-213.506-478.036-475.993-478.036V589.695z"/>
	<path display="inline" fill="#FFFFFF" d="M206.577,343.629c321.016,0,582.229,262.652,582.229,585.392h138.756
		c0-399.327-323.416-724.182-720.985-724.182V343.629z"/>
</g>
<g id="Rss_x5F_logo_x5F_white" display="none">
	<rect x="-0.001" fill="#EB7B1D" width="1133.853" height="1133.86"/>
	<path display="inline" fill="#FFFFFF" d="M566.925,0.004C253.82,0.004-0.001,253.825-0.001,566.93s253.821,566.926,566.926,566.926
		s566.926-253.821,566.926-566.926S880.03,0.004,566.925,0.004z M302.415,928.172c-53.091,0-96.116-42.998-96.116-96.123
		c0-53.064,43.025-96.143,96.116-96.143c53.092,0,96.117,43.078,96.117,96.143C398.531,885.174,355.507,928.172,302.415,928.172z
		 M543.602,928.915c0-90.765-35.055-176.013-98.782-240.059c-63.689-63.915-148.333-99.161-238.428-99.161V450.879
		c262.487,0,475.993,214.461,475.993,478.036H543.602z M788.807,929.021c0-322.739-261.213-585.392-582.229-585.392v-138.79
		c397.569,0,720.985,324.855,720.985,724.182H788.807z"/>
</g>
</svg>
