<?xml version="1.0" encoding="utf-8"?>
<!-- Generator: Adobe Illustrator 16.0.0, SVG Export Plug-In . SVG Version: 6.00 Build 0)  -->
<!DOCTYPE svg PUBLIC "-//W3C//DTD SVG 1.1//EN" "http://www.w3.org/Graphics/SVG/1.1/DTD/svg11.dtd">
<svg version="1.1" id="Calque_1" xmlns="http://www.w3.org/2000/svg" xmlns:xlink="http://www.w3.org/1999/xlink" x="0px" y="0px"
	 width="283.46px" height="283.46px" viewBox="0 0 283.46 283.46" enable-background="new 0 0 283.46 283.46" xml:space="preserve">
<path d="M245.819,66.336c0,9.205-7.461,16.667-16.666,16.667H59.501c-9.205,0-16.667-7.462-16.667-16.667l0,0
	c0-9.205,7.462-16.667,16.667-16.667h169.652C238.358,49.669,245.819,57.131,245.819,66.336L245.819,66.336z"/>
<path d="M245.819,138.476c0,9.206-7.461,16.668-16.666,16.668H59.501c-9.205,0-16.667-7.463-16.667-16.668l0,0
	c0-9.205,7.462-16.667,16.667-16.667h169.652C238.358,121.81,245.819,129.271,245.819,138.476L245.819,138.476z"/>
<path d="M245.821,211.207c0,9.205-7.463,16.668-16.668,16.668H59.501c-9.205,0-16.667-7.463-16.667-16.668l0,0
	c0-9.203,7.462-16.666,16.667-16.666h169.652C238.358,194.541,245.821,202.004,245.821,211.207L245.821,211.207z"/>
</svg>
