<?xml version="1.0" encoding="utf-8"?>
<!-- Generator: Adobe Illustrator 16.0.0, SVG Export Plug-In . SVG Version: 6.00 Build 0)  -->
<!DOCTYPE svg PUBLIC "-//W3C//DTD SVG 1.1//EN" "http://www.w3.org/Graphics/SVG/1.1/DTD/svg11.dtd">
<svg version="1.1" id="Calque_1" xmlns="http://www.w3.org/2000/svg" xmlns:xlink="http://www.w3.org/1999/xlink" x="0px" y="0px"
	 width="1133.86px" height="850.39px" viewBox="0 0 1133.86 850.39" enable-background="new 0 0 1133.86 850.39"
	 xml:space="preserve">
<polygon opacity="0.25" fill="#010202" points="1134,850.391 567,733.658 0,850.391 0,17.113 1134,17.113 "/>
<polygon fill="#AB1916" points="1134,833.277 567,716.545 0,833.277 0,0 1134,0 "/>
<path fill="#FFFFFF" d="M177.722,633.475c0-2.408,35.687-4.336,79.72-4.336c44.034,0,79.738,1.928,79.738,4.336
	c0,2.398-35.704,4.326-79.738,4.326C213.408,637.801,177.722,635.873,177.722,633.475z"/>
<g>
	<path fill="#FFFFFF" d="M385.122,598.238l-126.249,35.234l-59.356-212.669l126.253-35.234l12.869,46.111l-68.803,19.203
		l9.343,33.454l63.705-17.785l12.877,46.114l-63.716,17.784l11.203,40.144l68.806-19.196L385.122,598.238z"/>
</g>
<text transform="matrix(1 0 0 1 416.9165 479.2236)" fill="#FFFFFF" font-family="'OpenSans-Semibold'" font-size="72.9479">Evrard Jérémy</text>
<text transform="matrix(1 0 0 1 449.6489 557.1436)" fill="#FFFFFF" font-family="'OpenSans-Semibold'" font-size="72.9479">Web Developer</text>
</svg>
